<svg width="1958" height="1097" viewBox="0 0 1958 1097" fill="none" xmlns="http://www.w3.org/2000/svg">
<path fill-rule="evenodd" clip-rule="evenodd" d="M979.514 194C783.767 194 625 352.851 625 548.906C625 744.961 783.767 903.812 979.514 903.812C1175.26 903.812 1334.03 744.961 1334.03 548.906C1334.03 352.851 1175.26 194 979.514 194ZM525 548.906C525 297.714 728.447 94 979.514 94C1230.58 94 1434.03 297.714 1434.03 548.906C1434.03 800.098 1230.58 1003.81 979.514 1003.81C728.447 1003.81 525 800.098 525 548.906Z" fill="black"/>
<path fill-rule="evenodd" clip-rule="evenodd" d="M1219.95 736.292H739.376V684.292H1219.95V736.292Z" fill="black"/>
<path fill-rule="evenodd" clip-rule="evenodd" d="M1208.69 391.35V658.431H1100.69V391.35H1208.69Z" fill="black"/>
<path fill-rule="evenodd" clip-rule="evenodd" d="M1040.14 555.143V658.431H932.145V555.143H1040.14Z" fill="black"/>
<path fill-rule="evenodd" clip-rule="evenodd" d="M871.599 470.437V658.431H763.599V470.437H871.599Z" fill="black"/>
<path fill-rule="evenodd" clip-rule="evenodd" d="M960.225 100.007C596.145 101.262 248.19 263.637 103.362 576.03L12.6378 533.97C178.965 175.202 571.004 1.34789 959.88 0.0078223C1348.95 -1.33291 1752.1 169.665 1944.86 521.916L1857.14 569.921C1686.88 258.795 1324.11 98.7533 960.225 100.007Z" fill="black"/>
<path fill-rule="evenodd" clip-rule="evenodd" d="M998.328 996.993C1363.48 995.737 1712.43 833.199 1857.65 520.562L1948.35 562.69C1781.57 921.712 1388.52 1095.65 998.672 1096.99C608.628 1098.33 204.432 927.249 11.1578 574.753L98.8422 526.675C269.568 838.048 633.372 998.248 998.328 996.993Z" fill="black"/>
<path d="M0 554.277L18.8255 520.442L61.1261 512.085L95.0485 535.5V573.054L61.1261 596.469L18.8255 588.112L0 554.277Z" fill="black"/>
<path d="M1958 545.277L1939.17 579.112L1896.87 587.469L1862.95 564.054V526.5L1896.87 503.085L1939.17 511.442L1958 545.277Z" fill="black"/>
</svg>
